<svg width="30" height="28" viewBox="0 0 30 28" fill="none" xmlns="http://www.w3.org/2000/svg">
<g>
<path id="Vector" d="M27.3392 17.1886C27.8506 17.0869 28.1063 17.0361 28.2198 16.8978C28.3333 16.7595 28.3333 16.5369 28.3333 16.0916V12.8468C28.3333 12.4016 28.3333 12.1789 28.2198 12.0406C28.1063 11.9023 27.8506 11.8515 27.3392 11.7498C24.4391 11.1734 22.6163 8.12761 23.5543 5.34628C23.7237 4.84396 23.8084 4.5928 23.7444 4.42497C23.6803 4.25713 23.4848 4.14612 23.0938 3.92409L20.2144 2.28925C19.8318 2.07202 19.6405 1.9634 19.4652 1.99289C19.2899 2.02239 19.1203 2.21535 18.7811 2.60127C16.7946 4.86165 13.2075 4.86156 11.221 2.60114C10.8818 2.21522 10.7122 2.02226 10.5369 1.99277C10.3617 1.96327 10.1704 2.07189 9.78774 2.28913L6.90834 3.92396C6.5173 4.14598 6.32178 4.25699 6.25773 4.42481C6.19368 4.59263 6.27836 4.84381 6.44774 5.34617C7.38551 8.12757 5.56121 11.1734 2.66081 11.7499C2.14941 11.8515 1.8937 11.9023 1.78018 12.0406C1.66666 12.1789 1.66666 12.4015 1.66666 12.8468V16.0916C1.66666 16.5369 1.66666 16.7595 1.78018 16.8978C1.89369 17.0361 2.1494 17.0869 2.66081 17.1886C5.56085 17.7651 7.38369 20.8108 6.44567 23.5922C6.27626 24.0945 6.19155 24.3456 6.2556 24.5135C6.31965 24.6813 6.51518 24.7923 6.90624 25.0144L9.78563 26.6492C10.1683 26.8664 10.3596 26.9751 10.5349 26.9455C10.7101 26.916 10.8797 26.7231 11.2188 26.3371C13.2064 24.0752 16.7957 24.0751 18.7833 26.337C19.1224 26.723 19.292 26.9159 19.4673 26.9454C19.6425 26.9749 19.8339 26.8663 20.2165 26.6491L23.0959 25.0142C23.4869 24.7922 23.6825 24.6812 23.7465 24.5133C23.8106 24.3455 23.7258 24.0943 23.5564 23.5921C22.6181 20.8108 24.4395 17.7651 27.3392 17.1886Z" stroke="#27272A" stroke-width="2" stroke-linecap="round"/>
<g id="elements" transform="translate(8, 5)">
<circle id="Ellipse 1533" cx="6.88889" cy="7.35812" r="6.01852" stroke="#27272A" stroke-width="1.5"/>
<path id="Vector" d="M4.18056 10.3674C5.5839 8.89757 8.1788 8.82836 9.59722 10.3674M8.39057 5.85351C8.39057 6.68449 7.71596 7.35814 6.88379 7.35814C6.05163 7.35814 5.37702 6.68449 5.37702 5.85351C5.37702 5.02252 6.05163 4.34888 6.88379 4.34888C7.71596 4.34888 8.39057 5.02252 8.39057 5.85351Z" stroke="#27272A" stroke-width="1.5" stroke-linecap="round"/>
</g>
</g>
</svg>
