<svg width="20" height="17" viewBox="0 0 20 17" fill="none" xmlns="http://www.w3.org/2000/svg">
<path d="M8.33366 6.38591L4.39642 2.19892C4.04786 1.82296 4.10369 1.54834 4.51473 1.31058C5.28744 0.863627 5.8894 0.851488 6.70389 1.29847L10.7912 3.5415C11.0821 3.70118 11.3675 3.86304 11.667 3.95134" stroke="#8184F8" stroke-width="1.5" stroke-linecap="round" stroke-linejoin="round"/>
<path d="M10.417 9.85514L12.1756 15.5272C12.3192 15.9904 12.572 16.0743 12.9637 15.8498C13.7 15.4276 13.9968 14.94 14.0167 14.0614L14.1165 9.65233C14.1299 9.0634 14.1275 8.48706 14.5837 8.05249" stroke="#8184F8" stroke-width="1.5" stroke-linecap="round" stroke-linejoin="round"/>
<path d="M6.94071 7.62277L8.51313 6.47385L12.2033 3.78344C12.2033 3.78344 13.5657 2.78249 14.3269 2.44906C15.2308 2.0531 16.0727 2.23718 16.9786 2.49017C17.4471 2.62103 17.6814 2.68646 17.8505 2.80852C18.1187 3.0022 18.2931 3.30028 18.3289 3.62631C18.3516 3.8318 18.2918 4.06471 18.1724 4.53053C17.9415 5.43114 17.6821 6.2427 16.8826 6.81715C16.2094 7.30089 14.6497 7.96468 14.6497 7.96468L10.4434 9.77293L8.64886 10.5422C7.99817 10.8211 7.67283 10.9606 7.45149 11.2194C6.9331 11.8255 6.85989 12.9224 6.66642 13.677C6.5595 14.0941 5.97322 14.8168 5.45081 14.7083C5.12829 14.6413 5.1221 14.2376 5.08196 13.9801L4.69549 11.5016C4.60307 10.9089 4.59598 10.8968 4.12198 10.5214L2.13996 8.95192C1.9341 8.7889 1.58285 8.58175 1.68533 8.27264C1.85132 7.77196 2.77872 7.6323 3.19822 7.74946C3.95728 7.96146 4.95655 8.44734 5.74769 8.3074C6.08549 8.24765 6.37056 8.03936 6.9407 7.62278L6.94071 7.62277Z" stroke="#8184F8" stroke-width="1.5" stroke-linecap="round" stroke-linejoin="round"/>
</svg>
