<svg width="22" height="23" viewBox="0 0 22 23" fill="none" xmlns="http://www.w3.org/2000/svg">
<path d="M1.52992 14.2389C1.31727 15.6329 2.268 16.6005 3.43205 17.0827C7.89481 18.9314 14.1052 18.9314 18.5679 17.0827C19.732 16.6005 20.6827 15.6329 20.4701 14.2389C20.3394 13.3821 19.6932 12.6688 19.2144 11.9721C18.5873 11.0485 18.525 10.0411 18.5249 8.96924C18.5249 4.8271 15.1559 1.46924 11 1.46924C6.84413 1.46924 3.47513 4.8271 3.47513 8.96924C3.47503 10.0411 3.41272 11.0485 2.78561 11.9721C2.30684 12.6688 1.66061 13.3821 1.52992 14.2389Z" stroke="#EEEEFF" stroke-width="2" stroke-linecap="round" stroke-linejoin="round"/>
<path d="M7 18.4692C7.45849 20.1945 9.07553 21.4692 11 21.4692C12.9245 21.4692 14.5415 20.1945 15 18.4692" stroke="#EEEEFF" stroke-width="1.5" stroke-linecap="round" stroke-linejoin="round"/>
</svg>
