<svg width="20" height="15" viewBox="0 0 20 15" fill="none" xmlns="http://www.w3.org/2000/svg">
<path d="M1.66699 7.46916C1.66699 4.52125 1.66699 3.0473 2.54433 2.06324C2.68465 1.90585 2.83931 1.76028 3.00654 1.62822C4.0521 0.80249 5.61818 0.80249 8.75033 0.80249H11.2503C14.3825 0.80249 15.9485 0.80249 16.9941 1.62822C17.1613 1.76028 17.316 1.90585 17.4563 2.06324C18.3337 3.0473 18.3337 4.52125 18.3337 7.46916C18.3337 10.4171 18.3337 11.891 17.4563 12.8751C17.316 13.0325 17.1613 13.178 16.9941 13.3101C15.9485 14.1358 14.3825 14.1358 11.2503 14.1358H8.75033C5.61818 14.1358 4.0521 14.1358 3.00654 13.3101C2.83931 13.178 2.68465 13.0325 2.54433 12.8751C1.66699 11.891 1.66699 10.4171 1.66699 7.46916Z" stroke="#8184F8" stroke-width="1.5" stroke-linecap="round" stroke-linejoin="round"/>
<path d="M8.33398 10.8025H9.58398" stroke="#8184F8" stroke-width="1.5" stroke-miterlimit="10" stroke-linecap="round" stroke-linejoin="round"/>
<path d="M12.084 10.8025L15.0007 10.8025" stroke="#8184F8" stroke-width="1.5" stroke-miterlimit="10" stroke-linecap="round" stroke-linejoin="round"/>
<path d="M1.66699 4.96924H18.3337" stroke="#8184F8" stroke-width="1.5" stroke-linejoin="round"/>
</svg>
