<svg width="30" height="26" viewBox="0 0 30 26" fill="none" xmlns="http://www.w3.org/2000/svg">
<g id="elements">
<path id="Vector" d="M23.8214 23.1357H24.475C26.0082 23.1357 27.2276 22.4372 28.3225 21.4605C31.1041 18.9792 24.5655 16.4691 22.3333 16.4691M19.6667 3.22743C19.9694 3.16738 20.2838 3.13574 20.6063 3.13574C23.0329 3.13574 25 4.9266 25 7.13574C25 9.34488 23.0329 11.1357 20.6063 11.1357C20.2838 11.1357 19.9694 11.1041 19.6667 11.0441" stroke="#27272A" stroke-width="2" stroke-linecap="round"/>
<g id="Vector_2">
<path d="M4.97508 17.9507C3.40312 18.7931 -0.718484 20.5132 1.79185 22.6656C3.01812 23.7171 4.38388 24.4691 6.10096 24.4691L15.899 24.4691C17.6161 24.4691 18.9819 23.7171 20.2082 22.6656C22.7185 20.5132 18.5969 18.7931 17.0249 17.9507C13.3387 15.9752 8.66132 15.9752 4.97508 17.9507Z" stroke="#27272A" stroke-width="2"/>
<path d="M16.3333 6.46908C16.3333 9.41459 13.9455 11.8024 11 11.8024C8.05448 11.8024 5.66667 9.41459 5.66667 6.46908C5.66667 3.52356 8.05448 1.13574 11 1.13574C13.9455 1.13574 16.3333 3.52356 16.3333 6.46908Z" stroke="#27272A" stroke-width="2"/>
</g>
</g>
</svg>
