<svg width="22" height="23" viewBox="0 0 22 23" fill="none" xmlns="http://www.w3.org/2000/svg">
<path d="M6.69171 19.0853C7.28274 19.0853 7.57825 19.0853 7.84747 19.1852C7.88486 19.1991 7.92172 19.2143 7.95797 19.231C8.21897 19.3507 8.42793 19.5597 8.84585 19.9776C9.80775 20.9395 10.2887 21.4204 10.8805 21.4648C10.96 21.4707 11.04 21.4707 11.1195 21.4648C11.7113 21.4204 12.1923 20.9395 13.1541 19.9776C13.5721 19.5597 13.781 19.3507 14.042 19.231C14.0783 19.2143 14.1151 19.1991 14.1525 19.1852C14.4218 19.0853 14.7173 19.0853 15.3083 19.0853H15.4173C16.9252 19.0853 17.6792 19.0853 18.1476 18.6169C18.6161 18.1484 18.6161 17.3945 18.6161 15.8866V15.7775C18.6161 15.1865 18.6161 14.891 18.716 14.6218C18.7298 14.5844 18.7451 14.5475 18.7617 14.5113C18.8815 14.2503 19.0904 14.0413 19.5083 13.6234C20.4702 12.6615 20.9512 12.1805 20.9955 11.5888C21.0015 11.5092 21.0015 11.4293 20.9955 11.3497C20.9512 10.7579 20.4702 10.277 19.5083 9.31509C19.0904 8.89717 18.8815 8.68821 18.7617 8.42721C18.7451 8.39096 18.7298 8.3541 18.716 8.31671C18.6161 8.04749 18.6161 7.75198 18.6161 7.16095V7.05193C18.6161 5.54402 18.6161 4.79007 18.1476 4.32163C17.6792 3.85318 16.9252 3.85318 15.4173 3.85318H15.3083C14.7173 3.85318 14.4218 3.85318 14.1525 3.75329C14.1151 3.73942 14.0783 3.72415 14.042 3.70752C13.781 3.58779 13.5721 3.37883 13.1541 2.96091C12.1923 1.99901 11.7113 1.51806 11.1195 1.47371C11.04 1.46775 10.96 1.46775 10.8805 1.47371C10.2887 1.51806 9.80775 1.99901 8.84585 2.9609C8.42793 3.37882 8.21897 3.58779 7.95797 3.70752C7.92172 3.72415 7.88486 3.73942 7.84747 3.75329C7.57825 3.85318 7.28274 3.85318 6.69171 3.85318H6.58269C5.07479 3.85318 4.32083 3.85318 3.85239 4.32163C3.38394 4.79007 3.38394 5.54402 3.38394 7.05193V7.16095C3.38394 7.75198 3.38394 8.04749 3.28405 8.31671C3.27018 8.3541 3.25491 8.39096 3.23828 8.42721C3.11855 8.68821 2.90959 8.89717 2.49167 9.31509C1.52977 10.277 1.04882 10.7579 1.00447 11.3497C0.99851 11.4293 0.99851 11.5092 1.00447 11.5888C1.04882 12.1805 1.52977 12.6615 2.49167 13.6234C2.90959 14.0413 3.11855 14.2503 3.23828 14.5113C3.25491 14.5475 3.27018 14.5844 3.28405 14.6218C3.38394 14.891 3.38394 15.1865 3.38394 15.7775V15.8866C3.38394 17.3945 3.38394 18.1484 3.85239 18.6169C4.32083 19.0853 5.07479 19.0853 6.58269 19.0853H6.69171Z" stroke="#EEEEFF" stroke-width="2"/>
<path d="M14 8.46924L8 14.4692" stroke="#EEEEFF" stroke-width="1.5" stroke-linecap="round" stroke-linejoin="round"/>
<path d="M14 14.4692H13.9892M8.01076 8.46924H8" stroke="#EEEEFF" stroke-width="2" stroke-linecap="round" stroke-linejoin="round"/>
</svg>
