<svg width="26" height="29" viewBox="0 0 26 29" fill="none" xmlns="http://www.w3.org/2000/svg">
<g id="elements">
<path id="Vector" d="M24.9236 20.9162C24.0485 15.6511 21.3242 11.7305 18.9559 9.4277C18.2668 8.7576 17.9222 8.42254 17.161 8.11246C16.3999 7.80237 15.7456 7.80237 14.437 7.80237L11.563 7.80237C10.2544 7.80237 9.60013 7.80237 8.83896 8.11246C8.07779 8.42254 7.73321 8.7576 7.04405 9.4277C4.67576 11.7305 1.95147 15.6511 1.07636 20.9162C0.42524 24.8336 4.03903 27.8024 8.07776 27.8024L17.9222 27.8024C21.961 27.8024 25.5748 24.8336 24.9236 20.9162Z" stroke="#27272A" stroke-width="2" stroke-linecap="round"/>
<path id="Vector_2" d="M13.884 13.1357C13.884 12.5835 13.4363 12.1357 12.884 12.1357C12.3318 12.1357 11.884 12.5835 11.884 13.1357L13.884 13.1357ZM11.884 22.4691C11.884 23.0214 12.3318 23.4691 12.884 23.4691C13.4363 23.4691 13.884 23.0214 13.884 22.4691H11.884ZM14.3142 15.7409C14.6484 16.1806 15.2758 16.2661 15.7154 15.9319C16.1551 15.5977 16.2406 14.9703 15.9064 14.5306L14.3142 15.7409ZM11.3296 19.9387C10.918 19.5704 10.2858 19.6054 9.91753 20.017C9.54922 20.4285 9.58426 21.0607 9.9958 21.429L11.3296 19.9387ZM12.884 16.6682C12.021 16.6682 11.628 16.5273 11.4717 16.422C11.4 16.3737 11.3333 16.319 11.3333 16.055H9.33331C9.33331 16.8305 9.61443 17.5823 10.3543 18.0807C11.0096 18.5222 11.892 18.6682 12.884 18.6682L12.884 16.6682ZM11.3333 16.055C11.3333 15.9277 11.4011 15.7304 11.6741 15.5289C11.9468 15.3277 12.3713 15.173 12.884 15.173V13.173C11.988 13.173 11.1371 13.4396 10.4867 13.9195C9.83655 14.3992 9.33331 15.1429 9.33331 16.055H11.3333ZM14.6666 19.5502C14.6666 19.8462 14.5615 20.0031 14.3367 20.1381C14.0513 20.3095 13.5615 20.4322 12.884 20.4322V22.4322C13.7433 22.4322 14.6449 22.2861 15.3666 21.8526C16.1489 21.3826 16.6666 20.5986 16.6666 19.5502H14.6666ZM12.884 18.6682C13.7552 18.6682 14.2094 18.8023 14.4247 18.9427C14.5501 19.0244 14.6666 19.1441 14.6666 19.5502H16.6666C16.6666 18.612 16.3195 17.7907 15.5173 17.2675C14.8051 16.803 13.868 16.6682 12.884 16.6682L12.884 18.6682ZM13.884 14.173L13.884 13.1357L11.884 13.1357L11.884 14.173L13.884 14.173ZM11.884 21.4322V22.4691H13.884V21.4322H11.884ZM12.884 15.173C13.5972 15.173 14.105 15.4656 14.3142 15.7409L15.9064 14.5306C15.2423 13.6568 14.0834 13.173 12.884 13.173V15.173ZM12.884 20.4322C12.1728 20.4322 11.6201 20.1987 11.3296 19.9387L9.9958 21.429C10.7212 22.0782 11.7804 22.4322 12.884 22.4322V20.4322Z" fill="#27272A"/>
<path id="Rectangle 2181" d="M6.67547 4.3929C6.4004 3.99252 6.00168 3.44907 6.8253 3.32514C7.67187 3.19775 8.55093 3.77726 9.41138 3.76535C10.1898 3.75458 10.5864 3.40933 11.0119 2.91638C11.4599 2.39731 12.1536 1.13574 13 1.13574C13.8463 1.13574 14.5401 2.39731 14.9881 2.91638C15.4136 3.40933 15.8102 3.75458 16.5886 3.76535C17.449 3.77726 18.3281 3.19775 19.1747 3.32514C19.9983 3.44907 19.5996 3.99252 19.3245 4.3929L18.0807 6.20326C17.5487 6.97769 17.2826 7.3649 16.7259 7.58366C16.1692 7.80241 15.4498 7.80241 14.0109 7.80241H11.989C10.5502 7.80241 9.83077 7.80241 9.27405 7.58366C8.71734 7.3649 8.45131 6.97769 7.91925 6.20326L6.67547 4.3929Z" stroke="#27272A" stroke-width="2"/>
</g>
</svg>
