<svg width="50" height="51" viewBox="0 0 50 51" fill="none" xmlns="http://www.w3.org/2000/svg">
<rect x="0.5" y="8.46924" width="49" height="34" rx="1.5" fill="white" stroke="#E0E1FF"/>
<rect x="6" y="11.4692" width="17" height="3" rx="1" fill="#E0E1FF"/>
<rect x="6" y="35.4692" width="5" height="5" rx="1" fill="#6366F1"/>
<rect x="14" y="30.4692" width="5" height="10" rx="1" fill="#6366F1"/>
<rect x="22" y="25.4692" width="5" height="15" rx="1" fill="#6366F1"/>
<rect x="38" y="21.4692" width="5" height="19" rx="1" fill="#6366F1"/>
<rect x="30" y="30.4692" width="5" height="10" rx="1" fill="#6366F1"/>
<path d="M13.1688 27.3708L12.8732 26.9675L12.8615 26.9761L12.8502 26.9854L13.1688 27.3708ZM22.4961 20.5356L22.2006 20.1323L22.2006 20.1323L22.4961 20.5356ZM23.4268 20.4017L23.5966 19.9314L23.5966 19.9314L23.4268 20.4017ZM30.1549 22.8308L29.9851 23.3011L29.9851 23.3011L30.1549 22.8308ZM31.4145 22.2821L30.9545 22.0862L30.9545 22.0862L31.4145 22.2821ZM34.4793 15.0865L34.0193 14.8906L34.0193 14.8906L34.4793 15.0865ZM35.2734 14.4863L35.3364 14.9823L35.3364 14.9823L35.2734 14.4863ZM43.376 13.4583L38.0525 11.2238L38.7792 16.9514L43.376 13.4583ZM6.99997 32.4693L7.3185 32.8547L13.4873 27.7562L13.1688 27.3708L12.8502 26.9854L6.68143 32.0839L6.99997 32.4693ZM13.1688 27.3708L13.4643 27.7741L22.7917 20.9389L22.4961 20.5356L22.2006 20.1323L12.8732 26.9675L13.1688 27.3708ZM23.4268 20.4017L23.257 20.872L29.9851 23.3011L30.1549 22.8308L30.3247 22.3605L23.5966 19.9314L23.4268 20.4017ZM31.4145 22.2821L31.8746 22.478L34.9393 15.2824L34.4793 15.0865L34.0193 14.8906L30.9545 22.0862L31.4145 22.2821ZM35.2734 14.4863L35.3364 14.9823L38.9748 14.5207L38.9118 14.0247L38.8489 13.5286L35.2105 13.9903L35.2734 14.4863ZM34.4793 15.0865L34.9393 15.2824C35.0089 15.1189 35.1601 15.0047 35.3364 14.9823L35.2734 14.4863L35.2105 13.9903C34.6817 14.0574 34.2282 14.4001 34.0193 14.8906L34.4793 15.0865ZM30.1549 22.8308L29.9851 23.3011C30.7336 23.5713 31.5628 23.2101 31.8746 22.478L31.4145 22.2821L30.9545 22.0862C30.8506 22.3302 30.5742 22.4506 30.3247 22.3605L30.1549 22.8308ZM22.4961 20.5356L22.7917 20.9389C22.926 20.8405 23.1004 20.8154 23.257 20.872L23.4268 20.4017L23.5966 19.9314C23.1268 19.7618 22.6034 19.8371 22.2006 20.1323L22.4961 20.5356Z" fill="#6366F1"/>
</svg>
