<svg width="69" height="58" viewBox="0 0 69 58" fill="none" xmlns="http://www.w3.org/2000/svg">
<path d="M38.0351 10.0387C25.1508 17.8195 17.9972 32.0496 13.6978 45.9666C13.4768 46.6818 13.2065 47.3996 12.9596 48.0982C12.2693 46.7054 7.55846 35.1375 5.65657 35.8448C4.54504 36.2581 5.18086 37.7437 5.42548 38.3429C7.19604 42.675 8.92574 46.5586 11.0413 50.7479C12.6336 53.9016 15.5965 53.0795 18.5316 52.1197C23.0127 50.6542 23.3764 50.2341 27.9659 48.5474C28.7223 48.2693 29.5172 48.0444 30.2183 47.697C31.0426 47.288 31.9264 46.4222 31.4888 45.4787C30.9928 44.4093 29.9138 44.4848 28.9921 44.8775C28.7996 44.9599 28.6042 45.0355 28.407 45.1063C26.2408 45.884 16.4088 50.0328 16.0813 49.3314C15.9708 49.0952 16.0081 48.8204 16.0499 48.5632C17.2535 41.141 20.4407 34.0708 24.2059 27.6108C26.7392 23.2637 29.9906 19.3372 33.7794 16.0251C36.824 13.3635 40.2564 11.1037 43.9955 9.54401C48.005 7.87121 51.8852 7.52654 56.1685 7.27212C58.6344 7.12589 56.6813 4.77664 55.3094 4.51202C53.8015 4.22075 52.1873 4.74382 50.7224 5.04876C46.0885 6.01584 41.8568 7.73097 38.0351 10.0387Z" fill="#2DD4C2"/>
</svg>
