<svg width="30" height="29" viewBox="0 0 30 29" fill="none" xmlns="http://www.w3.org/2000/svg">
<g id="elements">
<path id="Vector" d="M14.3334 17.1512C11.6045 17.0242 8.84448 17.6775 6.43679 19.1112C4.55043 20.2344 -0.395493 22.5279 2.6169 25.3978C4.08843 26.7998 5.72734 27.8024 7.78784 27.8024L15 27.8024" stroke="#27272A" stroke-width="2" stroke-linecap="round" stroke-linejoin="round"/>
<path id="Ellipse 1381" d="M19.6667 7.13574C19.6667 10.4495 16.9804 13.1357 13.6667 13.1357C10.353 13.1357 7.66669 10.4495 7.66669 7.13574C7.66669 3.82203 10.353 1.13574 13.6667 1.13574C16.9804 1.13574 19.6667 3.82203 19.6667 7.13574Z" stroke="#3B3C3F" stroke-width="2"/>
<path id="Vector_2" d="M23 26.0881V27.8024M23 26.0881C21.4576 26.0881 20.0988 25.3305 19.3018 24.1801M23 26.0881C24.5424 26.0881 25.9013 25.3305 26.6983 24.1801M23 17.5167C24.5425 17.5167 25.9015 18.2744 26.6984 19.4249M23 17.5167C21.4575 17.5167 20.0986 18.2744 19.3016 19.4249M23 17.5167V15.8024M28.3334 18.3738L26.6984 19.4249M17.6673 25.2309L19.3018 24.1801M17.6667 18.3738L19.3016 19.4249M28.3328 25.2309L26.6983 24.1801M26.6984 19.4249C27.1697 20.1052 27.4445 20.9228 27.4445 21.8024C27.4445 22.682 27.1696 23.4998 26.6983 24.1801M19.3016 19.4249C18.8303 20.1052 18.5556 20.9228 18.5556 21.8024C18.5556 22.682 18.8304 23.4998 19.3018 24.1801" stroke="#27272A" stroke-width="2" stroke-linecap="round"/>
</g>
</svg>
