<svg width="50" height="51" viewBox="0 0 50 51" fill="none" xmlns="http://www.w3.org/2000/svg">
<rect x="16" y="38.9692" width="17" height="6" rx="1" fill="#E0E1FF"/>
<rect x="7" y="42.9692" width="35" height="3" rx="1" fill="#C7C8FE"/>
<rect x="0.5" y="5.46924" width="49" height="34" rx="1.5" fill="white" stroke="#E0E1FF"/>
<rect x="4" y="8.46924" width="15" height="15" rx="7.5" fill="#6366F1"/>
<path d="M6.9783 18.0292C6.77163 18.0292 6.58496 17.9939 6.4183 17.9232C6.25296 17.8512 6.1163 17.7492 6.0083 17.6172C5.90163 17.4839 5.8323 17.3259 5.8003 17.1432L6.2363 17.0772C6.2803 17.2532 6.3723 17.3906 6.5123 17.4892C6.6523 17.5866 6.81563 17.6352 7.0023 17.6352C7.1183 17.6352 7.22496 17.6172 7.3223 17.5812C7.41963 17.5439 7.49763 17.4912 7.5563 17.4232C7.6163 17.3539 7.6463 17.2712 7.6463 17.1752C7.6463 17.1232 7.63696 17.0772 7.6183 17.0372C7.60096 16.9972 7.5763 16.9626 7.5443 16.9332C7.51363 16.9026 7.47563 16.8766 7.4303 16.8552C7.3863 16.8326 7.33763 16.8132 7.2843 16.7972L6.5463 16.5792C6.4743 16.5579 6.40096 16.5306 6.3263 16.4972C6.25163 16.4626 6.18296 16.4179 6.1203 16.3632C6.05896 16.3072 6.00896 16.2386 5.9703 16.1572C5.93163 16.0746 5.9123 15.9746 5.9123 15.8572C5.9123 15.6799 5.95763 15.5299 6.0483 15.4072C6.1403 15.2832 6.2643 15.1899 6.4203 15.1272C6.5763 15.0632 6.75096 15.0312 6.9443 15.0312C7.13896 15.0339 7.31296 15.0686 7.4663 15.1352C7.62096 15.2019 7.74896 15.2979 7.8503 15.4232C7.95296 15.5472 8.02363 15.6979 8.0623 15.8752L7.6143 15.9512C7.5943 15.8432 7.55163 15.7506 7.4863 15.6732C7.42096 15.5946 7.34096 15.5346 7.2463 15.4932C7.15163 15.4506 7.04896 15.4286 6.9383 15.4272C6.83163 15.4246 6.73363 15.4406 6.6443 15.4752C6.5563 15.5099 6.48563 15.5586 6.4323 15.6212C6.3803 15.6839 6.3543 15.7559 6.3543 15.8372C6.3543 15.9172 6.37763 15.9819 6.4243 16.0312C6.47096 16.0806 6.5283 16.1199 6.5963 16.1492C6.66563 16.1772 6.7343 16.2006 6.8023 16.2192L7.3343 16.3692C7.40096 16.3879 7.4763 16.4132 7.5603 16.4452C7.64563 16.4759 7.72763 16.5192 7.8063 16.5752C7.8863 16.6312 7.9523 16.7059 8.0043 16.7992C8.0563 16.8912 8.0823 17.0072 8.0823 17.1472C8.0823 17.2926 8.05296 17.4206 7.9943 17.5312C7.93563 17.6406 7.85496 17.7326 7.7523 17.8072C7.65096 17.8806 7.53363 17.9359 7.4003 17.9732C7.26696 18.0106 7.1263 18.0292 6.9783 18.0292ZM9.74452 17.9692C9.60852 17.9959 9.47518 18.0072 9.34452 18.0032C9.21385 17.9992 9.09718 17.9739 8.99452 17.9272C8.89185 17.8806 8.81452 17.8072 8.76252 17.7072C8.71585 17.6179 8.69052 17.5272 8.68652 17.4352C8.68385 17.3419 8.68252 17.2366 8.68252 17.1192V15.2092H9.10252V17.0992C9.10252 17.1859 9.10318 17.2612 9.10452 17.3252C9.10718 17.3892 9.12118 17.4432 9.14652 17.4872C9.19452 17.5699 9.27052 17.6172 9.37452 17.6292C9.47985 17.6399 9.60318 17.6352 9.74452 17.6152V17.9692ZM8.26852 16.1452V15.8092H9.74452V16.1452H8.26852ZM10.1999 17.9692V15.8092H10.5719V16.3332L10.5199 16.2652C10.5466 16.1959 10.5813 16.1326 10.6239 16.0752C10.6666 16.0166 10.7159 15.9686 10.7719 15.9312C10.8266 15.8912 10.8873 15.8606 10.9539 15.8392C11.0219 15.8166 11.0913 15.8032 11.1619 15.7992C11.2326 15.7939 11.3006 15.7972 11.3659 15.8092V16.2012C11.2953 16.1826 11.2166 16.1772 11.1299 16.1852C11.0446 16.1932 10.9659 16.2206 10.8939 16.2672C10.8259 16.3112 10.7719 16.3646 10.7319 16.4272C10.6933 16.4899 10.6653 16.5599 10.6479 16.6372C10.6306 16.7132 10.6219 16.7939 10.6219 16.8792V17.9692H10.1999ZM11.7868 15.4552V15.0492H12.2048V15.4552H11.7868ZM11.7868 17.9692V15.8092H12.2048V17.9692H11.7868ZM13.8194 18.0292C13.6127 18.0292 13.4394 17.9792 13.2994 17.8792C13.1594 17.7779 13.0534 17.6412 12.9814 17.4692C12.9094 17.2972 12.8734 17.1032 12.8734 16.8872C12.8734 16.6712 12.9087 16.4772 12.9794 16.3052C13.0514 16.1332 13.1567 15.9979 13.2954 15.8992C13.4354 15.7992 13.6074 15.7492 13.8114 15.7492C14.0141 15.7492 14.1887 15.7992 14.3354 15.8992C14.4834 15.9979 14.5974 16.1332 14.6774 16.3052C14.7574 16.4759 14.7974 16.6699 14.7974 16.8872C14.7974 17.1032 14.7574 17.2979 14.6774 17.4712C14.5987 17.6432 14.4861 17.7792 14.3394 17.8792C14.1941 17.9792 14.0207 18.0292 13.8194 18.0292ZM12.8034 18.9292V15.8092H13.1754V17.3632H13.2234V18.9292H12.8034ZM13.7614 17.6512C13.8947 17.6512 14.0047 17.6172 14.0914 17.5492C14.1794 17.4812 14.2447 17.3899 14.2874 17.2752C14.3314 17.1592 14.3534 17.0299 14.3534 16.8872C14.3534 16.7459 14.3314 16.6179 14.2874 16.5032C14.2447 16.3886 14.1787 16.2972 14.0894 16.2292C14.0001 16.1612 13.8861 16.1272 13.7474 16.1272C13.6167 16.1272 13.5087 16.1592 13.4234 16.2232C13.3394 16.2872 13.2767 16.3766 13.2354 16.4912C13.1954 16.6059 13.1754 16.7379 13.1754 16.8872C13.1754 17.0366 13.1954 17.1686 13.2354 17.2832C13.2754 17.3979 13.3387 17.4879 13.4254 17.5532C13.5121 17.6186 13.6241 17.6512 13.7614 17.6512ZM16.197 18.0292C15.9823 18.0292 15.7937 17.9826 15.631 17.8892C15.4697 17.7946 15.3437 17.6632 15.253 17.4952C15.1637 17.3259 15.119 17.1299 15.119 16.9072C15.119 16.6712 15.163 16.4666 15.251 16.2932C15.3403 16.1199 15.4643 15.9859 15.623 15.8912C15.7817 15.7966 15.9663 15.7492 16.177 15.7492C16.397 15.7492 16.5843 15.8006 16.739 15.9032C16.8937 16.0046 17.009 16.1492 17.085 16.3372C17.1623 16.5252 17.193 16.7486 17.177 17.0072H16.759V16.8552C16.7563 16.6046 16.7083 16.4192 16.615 16.2992C16.523 16.1792 16.3823 16.1192 16.193 16.1192C15.9837 16.1192 15.8263 16.1852 15.721 16.3172C15.6157 16.4492 15.563 16.6399 15.563 16.8892C15.563 17.1266 15.6157 17.3106 15.721 17.4412C15.8263 17.5706 15.9783 17.6352 16.177 17.6352C16.3077 17.6352 16.4203 17.6059 16.515 17.5472C16.611 17.4872 16.6857 17.4019 16.739 17.2912L17.149 17.4212C17.065 17.6146 16.9377 17.7646 16.767 17.8712C16.5963 17.9766 16.4063 18.0292 16.197 18.0292ZM15.427 17.0072V16.6812H16.969V17.0072H15.427Z" fill="white"/>
<rect x="17" y="22.4692" width="15" height="15" rx="7.5" fill="#6366F1"/>
<path d="M24.0819 32.9692V27.9972H22.1659V27.2092H26.8339V27.9972H24.9179V32.9692H24.0819Z" fill="white"/>
<rect x="31" y="8.46924" width="15" height="15" rx="7.5" fill="#FFE8D5"/>
<path d="M33.2039 17.9692V17.9032L34.6739 15.4832H33.2839V15.0892H35.3919V15.1572L33.9299 17.5732H35.3659V17.9692H33.2039ZM36.8118 18.0292C36.5958 18.0292 36.4084 17.9806 36.2498 17.8832C36.0911 17.7859 35.9684 17.6519 35.8818 17.4812C35.7964 17.3092 35.7538 17.1112 35.7538 16.8872C35.7538 16.6619 35.7978 16.4639 35.8858 16.2932C35.9738 16.1212 36.0971 15.9879 36.2558 15.8932C36.4144 15.7972 36.5998 15.7492 36.8118 15.7492C37.0278 15.7492 37.2151 15.7979 37.3738 15.8952C37.5324 15.9926 37.6551 16.1266 37.7418 16.2972C37.8284 16.4679 37.8718 16.6646 37.8718 16.8872C37.8718 17.1126 37.8278 17.3112 37.7398 17.4832C37.6531 17.6539 37.5304 17.7879 37.3718 17.8852C37.2131 17.9812 37.0264 18.0292 36.8118 18.0292ZM36.8118 17.6352C37.0184 17.6352 37.1724 17.5659 37.2738 17.4272C37.3764 17.2872 37.4278 17.1072 37.4278 16.8872C37.4278 16.6619 37.3758 16.4819 37.2718 16.3472C37.1691 16.2112 37.0158 16.1432 36.8118 16.1432C36.6718 16.1432 36.5564 16.1752 36.4658 16.2392C36.3751 16.3019 36.3078 16.3892 36.2638 16.5012C36.2198 16.6119 36.1978 16.7406 36.1978 16.8872C36.1978 17.1139 36.2498 17.2952 36.3538 17.4312C36.4578 17.5672 36.6104 17.6352 36.8118 17.6352ZM39.2493 18.0292C39.0333 18.0292 38.8459 17.9806 38.6873 17.8832C38.5286 17.7859 38.4059 17.6519 38.3193 17.4812C38.2339 17.3092 38.1913 17.1112 38.1913 16.8872C38.1913 16.6619 38.2353 16.4639 38.3233 16.2932C38.4113 16.1212 38.5346 15.9879 38.6933 15.8932C38.8519 15.7972 39.0373 15.7492 39.2493 15.7492C39.4653 15.7492 39.6526 15.7979 39.8113 15.8952C39.9699 15.9926 40.0926 16.1266 40.1793 16.2972C40.2659 16.4679 40.3093 16.6646 40.3093 16.8872C40.3093 17.1126 40.2653 17.3112 40.1773 17.4832C40.0906 17.6539 39.9679 17.7879 39.8093 17.8852C39.6506 17.9812 39.4639 18.0292 39.2493 18.0292ZM39.2493 17.6352C39.4559 17.6352 39.6099 17.5659 39.7113 17.4272C39.8139 17.2872 39.8653 17.1072 39.8653 16.8872C39.8653 16.6619 39.8133 16.4819 39.7093 16.3472C39.6066 16.2112 39.4533 16.1432 39.2493 16.1432C39.1093 16.1432 38.9939 16.1752 38.9033 16.2392C38.8126 16.3019 38.7453 16.3892 38.7013 16.5012C38.6573 16.6119 38.6353 16.7406 38.6353 16.8872C38.6353 17.1139 38.6873 17.2952 38.7913 17.4312C38.8953 17.5672 39.0479 17.6352 39.2493 17.6352ZM43.3368 17.9692L43.3388 16.6232C43.3388 16.4672 43.2988 16.3459 43.2188 16.2592C43.1388 16.1712 43.0334 16.1272 42.9028 16.1272C42.8228 16.1272 42.7494 16.1459 42.6827 16.1832C42.6174 16.2192 42.5641 16.2739 42.5228 16.3472C42.4828 16.4192 42.4628 16.5099 42.4628 16.6192L42.2608 16.5172C42.2581 16.3652 42.2901 16.2319 42.3568 16.1172C42.4248 16.0026 42.5168 15.9139 42.6328 15.8512C42.7488 15.7872 42.8788 15.7552 43.0228 15.7552C43.2561 15.7552 43.4368 15.8252 43.5648 15.9652C43.6928 16.1052 43.7568 16.2912 43.7568 16.5232L43.7548 17.9692H43.3368ZM40.7468 17.9692V15.8092H41.1188V16.4332H41.1668V17.9692H40.7468ZM42.0428 17.9692L42.0448 16.6312C42.0448 16.4739 42.0048 16.3506 41.9248 16.2612C41.8461 16.1719 41.7401 16.1272 41.6068 16.1272C41.4748 16.1272 41.3681 16.1726 41.2868 16.2632C41.2068 16.3539 41.1668 16.4726 41.1668 16.6192L40.9668 16.4912C40.9668 16.3499 41.0008 16.2239 41.0688 16.1132C41.1368 16.0026 41.2288 15.9152 41.3448 15.8512C41.4608 15.7872 41.5921 15.7552 41.7388 15.7552C41.8921 15.7552 42.0228 15.7879 42.1308 15.8532C42.2388 15.9172 42.3208 16.0072 42.3768 16.1232C42.4341 16.2392 42.4628 16.3739 42.4628 16.5272L42.4608 17.9692H42.0428Z" fill="#27272A"/>
</svg>
