<svg width="20" height="23" viewBox="0 0 20 23" fill="none" xmlns="http://www.w3.org/2000/svg">
<path d="M18.9427 16.3046C18.2864 12.3558 16.2432 9.41537 14.467 7.68824C13.9501 7.18566 13.6917 6.93437 13.1208 6.7018C12.5499 6.46924 12.0592 6.46924 11.0778 6.46924L8.92222 6.46924C7.94081 6.46924 7.4501 6.46924 6.87922 6.7018C6.30834 6.93437 6.04991 7.18566 5.53304 7.68824C3.75682 9.41537 1.71361 12.3558 1.05727 16.3046C0.56893 19.2427 3.27927 21.4692 6.30832 21.4692L13.6917 21.4692C16.7207 21.4692 19.4311 19.2427 18.9427 16.3046Z" stroke="#EEEEFF" stroke-width="2" stroke-linecap="round"/>
<path d="M10.913 10.4692C10.913 9.91695 10.4653 9.46924 9.91304 9.46924C9.36076 9.46924 8.91304 9.91695 8.91304 10.4692L10.913 10.4692ZM8.91304 17.4692C8.91304 18.0215 9.36076 18.4692 9.91304 18.4692C10.4653 18.4692 10.913 18.0215 10.913 17.4692H8.91304ZM10.7866 12.5744C11.1208 13.0141 11.7482 13.0996 12.1879 12.7654C12.6276 12.4312 12.7131 11.8038 12.3789 11.3641L10.7866 12.5744ZM8.91392 15.3852C8.50238 15.0169 7.87018 15.0519 7.50187 15.4634C7.13356 15.875 7.1686 16.5072 7.58014 16.8755L8.91392 15.3852ZM9.91304 12.8686C9.28186 12.8686 9.04835 12.7636 8.99349 12.7266C8.98315 12.7196 8.99783 12.7291 9.0079 12.7504C9.01429 12.764 9 12.7438 9 12.6587H7C7 13.3042 7.23764 13.9552 7.87608 14.3853C8.42991 14.7584 9.15292 14.8686 9.91304 14.8686L9.91304 12.8686ZM9 12.6587C9 12.6522 9.00068 12.6366 9.0179 12.6066C9.03683 12.5736 9.0772 12.522 9.15404 12.4653C9.31136 12.3492 9.57644 12.2472 9.91304 12.2472V10.2472C9.1931 10.2472 8.50166 10.4611 7.9666 10.8559C7.43186 11.2505 7 11.8765 7 12.6587H9ZM11 15.2801C11 15.372 10.9805 15.408 10.974 15.4191C10.9659 15.4329 10.943 15.4651 10.8738 15.5067C10.7143 15.6025 10.3984 15.6916 9.91304 15.6916V17.6916C10.5803 17.6916 11.3079 17.5791 11.9037 17.2212C12.5601 16.8269 13 16.1604 13 15.2801H11ZM9.91304 14.8686C10.5523 14.8686 10.8326 14.969 10.932 15.0338C10.9633 15.0543 10.9666 15.0641 10.9695 15.07C10.9761 15.0836 11 15.1415 11 15.2801H13C13 14.5099 12.7108 13.8062 12.0245 13.3586C11.4283 12.9697 10.6651 12.8686 9.91304 12.8686L9.91304 14.8686ZM10.913 11.2472L10.913 10.4692L8.91304 10.4692L8.91304 11.2472L10.913 11.2472ZM8.91304 16.6916V17.4692H10.913V16.6916H8.91304ZM9.91304 12.2472C10.3871 12.2472 10.6866 12.4427 10.7866 12.5744L12.3789 11.3641C11.8239 10.634 10.8734 10.2472 9.91304 10.2472V12.2472ZM9.91304 15.6916C9.4287 15.6916 9.07749 15.5316 8.91392 15.3852L7.58014 16.8755C8.17851 17.411 9.03626 17.6916 9.91304 17.6916V15.6916Z" fill="#EEEEFF"/>
<path d="M5.25662 3.91211C5.05031 3.61182 4.75128 3.20423 5.36899 3.11128C6.00392 3.01575 6.66321 3.45038 7.30855 3.44145C7.89237 3.43337 8.1898 3.17443 8.50891 2.80472C8.84493 2.41541 9.36523 1.46924 10 1.46924C10.6348 1.46924 11.1551 2.41541 11.4911 2.80472C11.8102 3.17443 12.1076 3.43337 12.6914 3.44145C13.3368 3.45038 13.9961 3.01575 14.631 3.11128C15.2487 3.20423 14.9497 3.61182 14.7434 3.91211L13.8105 5.26988C13.4115 5.8507 13.212 6.14111 12.7944 6.30517C12.3769 6.46924 11.8373 6.46924 10.7582 6.46924L9.2418 6.46924C8.16266 6.46924 7.6231 6.46924 7.20556 6.30517C6.78802 6.14111 6.5885 5.8507 6.18945 5.26988L5.25662 3.91211Z" stroke="#EEEEFF" stroke-width="2"/>
</svg>
