<svg width="22" height="23" viewBox="0 0 22 23" fill="none" xmlns="http://www.w3.org/2000/svg">
<path d="M10.9982 1.46924C7.99043 1.46924 6.04018 3.48823 3.73371 4.22414C2.79589 4.52337 2.32697 4.67298 2.1372 4.88389C1.94743 5.09479 1.89186 5.40299 1.78072 6.01937C0.591434 12.6152 3.1909 18.7132 9.39029 21.0867C10.0564 21.3417 10.3894 21.4692 11.0015 21.4692C11.6135 21.4692 11.9466 21.3417 12.6126 21.0867C18.8116 18.7132 21.4086 12.6152 20.219 6.01936C20.1078 5.40288 20.0522 5.09463 19.8624 4.88372C19.6726 4.67282 19.2037 4.52329 18.2659 4.22422C15.9585 3.48838 14.0061 1.46924 10.9982 1.46924Z" stroke="#EEEEFF" stroke-width="2" stroke-linecap="round" stroke-linejoin="round"/>
<path d="M8.5803 15.3265L8.27607 16.012L8.27607 16.012L8.5803 15.3265ZM7.63321 14.3118L6.93367 14.5822L6.93367 14.5822L7.63321 14.3118ZM14.3668 14.3118L15.0663 14.5822L15.0663 14.5822L14.3668 14.3118ZM13.4197 15.3265L13.7239 16.012L13.7239 16.012L13.4197 15.3265ZM13.4197 9.98696L13.7239 9.30144L13.4197 9.98696ZM14.3668 11.0017L15.0663 10.7313L15.0663 10.7313L14.3668 11.0017ZM8.5803 9.98696L8.27607 9.30144H8.27607L8.5803 9.98696ZM7.63321 11.0017L6.93367 10.7313L7.63321 11.0017ZM8.5 9.84424C8.5 10.2585 8.83579 10.5942 9.25 10.5942C9.66421 10.5942 10 10.2585 10 9.84424H8.5ZM12 9.84424C12 10.2585 12.3358 10.5942 12.75 10.5942C13.1642 10.5942 13.5 10.2585 13.5 9.84424H12ZM10.125 10.5942H11.875V9.09424H10.125V10.5942ZM11.875 14.7192H10.125L10.125 16.2192H11.875V14.7192ZM10.125 14.7192C9.70631 14.7192 9.43253 14.7188 9.22216 14.7034C9.01961 14.6886 8.93381 14.6629 8.88454 14.641L8.27607 16.012C8.5484 16.1329 8.82724 16.1785 9.1128 16.1994C9.39052 16.2197 9.72829 16.2192 10.125 16.2192L10.125 14.7192ZM6.75 12.6567C6.75 13.084 6.74965 13.4395 6.76817 13.7303C6.78706 14.027 6.82777 14.3083 6.93367 14.5822L8.33275 14.0413C8.30544 13.9707 8.27955 13.8613 8.26514 13.635C8.25035 13.4029 8.25 13.1031 8.25 12.6567H6.75ZM8.88454 14.641C8.64711 14.5356 8.44273 14.3258 8.33275 14.0413L6.93367 14.5822C7.17892 15.2166 7.6559 15.7368 8.27607 16.012L8.88454 14.641ZM13.75 12.6567C13.75 13.1031 13.7496 13.4029 13.7349 13.635C13.7205 13.8613 13.6946 13.9707 13.6672 14.0413L15.0663 14.5822C15.1722 14.3083 15.2129 14.027 15.2318 13.7303C15.2504 13.4395 15.25 13.084 15.25 12.6567H13.75ZM11.875 16.2192C12.2717 16.2192 12.6095 16.2197 12.8872 16.1994C13.1728 16.1785 13.4516 16.1329 13.7239 16.012L13.1155 14.641C13.0662 14.6629 12.9804 14.6886 12.7778 14.7034C12.5675 14.7188 12.2937 14.7192 11.875 14.7192V16.2192ZM13.6672 14.0413C13.5573 14.3258 13.3529 14.5356 13.1155 14.641L13.7239 16.012C14.3441 15.7368 14.8211 15.2166 15.0663 14.5822L13.6672 14.0413ZM11.875 10.5942C12.2937 10.5942 12.5675 10.5947 12.7778 10.6101C12.9804 10.6249 13.0662 10.6506 13.1155 10.6725L13.7239 9.30144C13.4516 9.18058 13.1728 9.13495 12.8872 9.11408C12.6095 9.09377 12.2717 9.09424 11.875 9.09424V10.5942ZM15.25 12.6567C15.25 12.2295 15.2504 11.874 15.2318 11.5832C15.2129 11.2865 15.1722 11.0052 15.0663 10.7313L13.6672 11.2721C13.6946 11.3428 13.7205 11.4522 13.7349 11.6785C13.7496 11.9106 13.75 12.2103 13.75 12.6567H15.25ZM13.1155 10.6725C13.3529 10.7779 13.5573 10.9877 13.6672 11.2722L15.0663 10.7313C14.8211 10.0969 14.3441 9.57667 13.7239 9.30144L13.1155 10.6725ZM10.125 9.09424C9.72829 9.09424 9.39052 9.09377 9.1128 9.11408C8.82724 9.13495 8.5484 9.18058 8.27607 9.30144L8.88454 10.6725C8.93381 10.6506 9.01961 10.6249 9.22216 10.6101C9.43253 10.5947 9.70631 10.5942 10.125 10.5942V9.09424ZM8.25 12.6567C8.25 12.2103 8.25035 11.9106 8.26514 11.6785C8.27955 11.4522 8.30544 11.3428 8.33275 11.2722L6.93367 10.7313C6.82777 11.0052 6.78706 11.2865 6.76817 11.5832C6.74965 11.874 6.75 12.2295 6.75 12.6567H8.25ZM8.27607 9.30144C7.6559 9.57667 7.17892 10.0969 6.93367 10.7313L8.33275 11.2722C8.44273 10.9877 8.64711 10.7779 8.88454 10.6725L8.27607 9.30144ZM10 9.84424V8.15674H8.5V9.84424H10ZM12 8.15674V9.84424H13.5V8.15674H12ZM11 7.21924C11.5782 7.21924 12 7.66445 12 8.15674H13.5C13.5 6.78507 12.3548 5.71924 11 5.71924V7.21924ZM10 8.15674C10 7.66445 10.4218 7.21924 11 7.21924V5.71924C9.64523 5.71924 8.5 6.78507 8.5 8.15674H10Z" fill="#EEEEFF"/>
</svg>
