<svg width="50" height="51" viewBox="0 0 50 51" fill="none" xmlns="http://www.w3.org/2000/svg">
<g id="security-secure-protection-9_svgrepo.com">
<path id="Vector" d="M24.6795 6.64673C25.0541 6.53096 25.4544 6.52781 25.8307 6.63767L40.5467 10.9339C41.4063 11.1848 41.9943 11.9766 41.9862 12.872L41.8308 29.8663C41.8308 37.0474 35.2405 44.8236 25.5531 46.422C25.3557 46.4545 25.1521 46.4546 24.9548 46.4221C15.2536 44.8239 8 37.0475 8 29.8663V13.2777C8 12.4007 8.57142 11.6259 9.40935 11.3669L24.6795 6.64673Z" fill="#8184F8"/>
<g id="Group">
<path id="Vector_2" d="M31.2828 34.1021H19.3838C19.1279 34.1021 19 33.9742 19 33.7183V24.3782C19 24.1223 19.1279 23.9944 19.3838 23.9944H31.2828C31.5387 23.9944 31.6667 24.1223 31.6667 24.3782V33.7183C31.6667 33.9742 31.5387 34.1021 31.2828 34.1021Z" fill="white" stroke="#8184F8" stroke-width="2" stroke-miterlimit="10" stroke-linejoin="round"/>
<path id="Vector_3" d="M29.1077 23.8665H21.431C21.1751 23.8665 21.0471 23.7386 21.0471 23.4827V21.6915C21.0471 19.3884 22.9663 17.4692 25.2694 17.4692C27.5724 17.4692 29.4916 19.3884 29.4916 21.6915V23.4827C29.4916 23.7386 29.3636 23.8665 29.1077 23.8665Z" fill="white" stroke="#8184F8" stroke-width="2" stroke-miterlimit="10" stroke-linejoin="round"/>
<circle id="Ellipse" cx="25.2694" cy="28.9843" r="1.27946" fill="white" stroke="#8184F8" stroke-width="2" stroke-miterlimit="10" stroke-linecap="round" stroke-linejoin="round"/>
</g>
</g>
</svg>
