<svg width="18" height="19" viewBox="0 0 18 19" fill="none" xmlns="http://www.w3.org/2000/svg">
<path d="M15.9647 10.5998C14.9735 11.5908 13.1084 11.5523 10.2486 11.5523C8.40887 11.5523 6.91716 10.0584 6.91622 8.2186C6.91622 5.36083 6.87768 3.4947 7.8689 2.50364C8.86011 1.51259 9.2979 1.55272 13.6888 1.55272C14.1132 1.5509 14.3267 2.06407 14.0267 2.36411L11.7659 4.6251C11.1921 5.19901 11.1905 6.12943 11.7644 6.70326C12.3383 7.27709 13.2688 7.27715 13.8428 6.7034L16.1042 4.44295C16.4043 4.14298 16.9176 4.35652 16.9158 4.78078C16.9158 9.171 16.9559 9.60871 15.9647 10.5998Z" stroke="#8184F8" stroke-width="1.5"/>
<path d="M10.2497 11.5526L5.1067 16.6956C4.18622 17.616 2.69384 17.616 1.77336 16.6956C0.852889 15.7751 0.852889 14.2827 1.77336 13.3622L6.91634 8.21924" stroke="#8184F8" stroke-width="1.5" stroke-linecap="round"/>
<path d="M3.59048 14.8857H3.58301" stroke="#8184F8" stroke-width="2" stroke-linecap="round" stroke-linejoin="round"/>
</svg>
