<svg width="20" height="15" viewBox="0 0 20 15" fill="none" xmlns="http://www.w3.org/2000/svg">
<path d="M17.3117 12.4692C17.9361 12.4692 18.4328 12.0763 18.8787 11.5269C19.7916 10.4021 18.2928 9.50327 17.7211 9.06307C17.14 8.61559 16.4912 8.36209 15.8333 8.30257M15 6.6359C16.1506 6.6359 17.0833 5.70316 17.0833 4.55257C17.0833 3.40198 16.1506 2.46924 15 2.46924" stroke="#8184F8" stroke-width="1.5" stroke-linecap="round"/>
<path d="M2.68797 12.4692C2.06355 12.4692 1.5669 12.0763 1.12096 11.5269C0.208082 10.4021 1.7069 9.50327 2.27855 9.06307C2.85965 8.61559 3.50849 8.36209 4.16634 8.30257M4.58301 6.6359C3.43241 6.6359 2.49967 5.70316 2.49967 4.55257C2.49967 3.40198 3.43241 2.46924 4.58301 2.46924" stroke="#8184F8" stroke-width="1.5" stroke-linecap="round"/>
<path d="M6.73618 10.0617C5.8847 10.5882 3.65216 11.6633 5.01192 13.0086C5.67616 13.6658 6.41594 14.1357 7.34603 14.1357H12.6533C13.5834 14.1357 14.3232 13.6658 14.9874 13.0086C16.3472 11.6633 14.1147 10.5882 13.2632 10.0617C11.2665 8.82708 8.73289 8.82708 6.73618 10.0617Z" stroke="#8184F8" stroke-width="1.5" stroke-linecap="round" stroke-linejoin="round"/>
<path d="M12.9163 3.71916C12.9163 5.32999 11.6105 6.63582 9.99967 6.63582C8.38884 6.63582 7.08301 5.32999 7.08301 3.71916C7.08301 2.10833 8.38884 0.80249 9.99967 0.80249C11.6105 0.80249 12.9163 2.10833 12.9163 3.71916Z" stroke="#8184F8" stroke-width="1.5"/>
</svg>
