<svg width="50" height="51" viewBox="0 0 50 51" fill="none" xmlns="http://www.w3.org/2000/svg">
<g id="Workflow" clip-path="url(#clip0_56_382)">
<g id="Rectangle 34624146">
<mask id="path-1-inside-1_56_382" fill="white">
<path d="M19 12.4692C19 11.3647 19.8954 10.4692 21 10.4692H37C38.1046 10.4692 39 11.3647 39 12.4692V28.4692C39 29.5738 38.1046 30.4692 37 30.4692H21C19.8954 30.4692 19 29.5738 19 28.4692V12.4692Z"/>
</mask>
<path d="M37.7656 30.3179L37.7832 30.3618C37.5332 30.4293 37.2713 30.4692 37 30.4692C37.2426 30.4692 37.4636 30.2956 37.6367 30.0083L37.7656 30.3179ZM40 27.4692C40 28.2118 39.7282 28.8897 39.2812 29.4136L38.8486 29.2349L37.9785 28.8745C37.992 28.7436 38 28.6081 38 28.4692V27.1362H40V27.4692ZM40 21.8022V24.4692H38V21.8022H40ZM40 16.4692V19.1362H38V16.4692H40ZM40 13.8022H38V12.4692C38 12.3318 37.9731 12.2029 37.9248 12.0864L38.8486 11.7036L39.7715 11.3208C39.8807 11.5841 39.9531 11.8656 39.9834 12.1587C39.9838 12.1629 39.9849 12.1671 39.9854 12.1714C39.9951 12.2695 40 12.3689 40 12.4692V13.8022ZM19.1514 11.7036L19.46 11.8315C19.1728 12.0047 19 12.2267 19 12.4692C19 12.1977 19.0388 11.9352 19.1064 11.6851L19.1514 11.7036ZM37 9.46924C37.0948 9.46924 37.1885 9.47522 37.2812 9.48389C37.2907 9.48476 37.3002 9.48488 37.3096 9.48584C37.603 9.51605 37.8849 9.58846 38.1484 9.69775L37.7656 10.6206L37.3828 11.5444C37.3006 11.5104 37.2122 11.487 37.1191 11.4761C37.0801 11.4714 37.0403 11.4692 37 11.4692H35.667V9.46924H37ZM22.333 9.46924V11.4692H21C20.8608 11.4692 20.7249 11.4762 20.5938 11.4897L20.2344 10.6206L20.0547 10.188C20.5786 9.74076 21.2571 9.46924 22 9.46924H22.333ZM27.667 9.46924V11.4692H25V9.46924H27.667ZM33 9.46924V11.4692H30.333V9.46924H33Z" fill="#B9BAC0" mask="url(#path-1-inside-1_56_382)"/>
</g>
<g id="Rectangle 34624147">
<mask id="path-3-inside-2_56_382" fill="white">
<path d="M30 38.4692C30 39.5738 29.1046 40.4692 28 40.4692H12C10.8954 40.4692 10 39.5738 10 38.4692V22.4692C10 21.3647 10.8954 20.4692 12 20.4692H28C29.1046 20.4692 30 21.3647 30 22.4692V38.4692Z"/>
</mask>
<path d="M11.2344 20.6206L11.2168 20.5767C11.4668 20.5091 11.7287 20.4692 12 20.4692C11.7574 20.4692 11.5364 20.6428 11.3633 20.9302L11.2344 20.6206ZM9 23.4692C9 22.7266 9.27181 22.0488 9.71875 21.5249L10.1514 21.7036L11.0215 22.064C11.008 22.1949 11 22.3304 11 22.4692V23.8022H9V23.4692ZM9 29.1362V26.4692H11V29.1362H9ZM9 34.4692V31.8022H11V34.4692H9ZM9 37.1362H11V38.4692C11 38.6067 11.0269 38.7355 11.0752 38.8521L10.1514 39.2349L9.22852 39.6177C9.11934 39.3544 9.04687 39.0729 9.0166 38.7798C9.01616 38.7755 9.01507 38.7713 9.01465 38.7671C9.00494 38.669 9 38.5696 9 38.4692V37.1362ZM29.8486 39.2349L29.54 39.1069C29.8272 38.9338 30 38.7117 30 38.4692C30 38.7408 29.9612 39.0032 29.8936 39.2534L29.8486 39.2349ZM12 41.4692C11.9052 41.4692 11.8115 41.4633 11.7188 41.4546C11.7093 41.4537 11.6998 41.4536 11.6904 41.4526C11.397 41.4224 11.1151 41.35 10.8516 41.2407L11.2344 40.3179L11.6172 39.394C11.6994 39.4281 11.7878 39.4515 11.8809 39.4624C11.9199 39.467 11.9597 39.4692 12 39.4692H13.333V41.4692H12ZM26.667 41.4692V39.4692H28C28.1392 39.4692 28.2751 39.4623 28.4062 39.4487L28.7656 40.3179L28.9453 40.7505C28.4214 41.1977 27.7429 41.4692 27 41.4692H26.667ZM21.333 41.4692V39.4692H24V41.4692H21.333ZM16 41.4692V39.4692H18.667V41.4692H16Z" fill="#B9BAC0" mask="url(#path-3-inside-2_56_382)"/>
</g>
<rect id="Rectangle 34624145" x="30" y="28.4692" width="20" height="20" rx="2" fill="white"/>
<rect id="Rectangle 34624144" y="0.469238" width="20" height="20" rx="2" fill="#8184F8"/>
<path id="Polygon 1" d="M8.58579 31.8835C9.36684 31.1024 10.6332 31.1024 11.4142 31.8835L18.5858 39.055C19.3668 39.8361 19.3668 41.1024 18.5858 41.8835L11.4142 49.055C10.6332 49.8361 9.36683 49.8361 8.58579 49.055L1.41421 41.8835C0.633163 41.1024 0.633165 39.8361 1.41421 39.055L8.58579 31.8835Z" fill="white"/>
</g>
<defs>
<clipPath id="clip0_56_382">
<rect width="50" height="50" fill="white" transform="translate(0 0.469238)"/>
</clipPath>
</defs>
</svg>
