<svg width="32" height="32" viewBox="0 0 32 32" fill="none" xmlns="http://www.w3.org/2000/svg">
<g id="Penthrey-Favicon">
  <rect width="32" height="32" rx="16" fill="#1D1E55"/>
  <g id="Logo" transform="translate(4, 3) scale(0.95)">
    <path fill-rule="evenodd" clip-rule="evenodd" d="M12.9788 0C20.1318 0 25.9294 6.18327 25.9294 13.8131C25.9294 20.9607 20.8377 26.8415 14.3059 27.56C13.8635 27.6073 13.4212 27.6356 12.9788 27.6356C12.5271 27.6356 12.0847 27.6073 11.6518 27.56H0.0282364V14.3425H0.0376482C0.0282364 14.1724 0.0282364 13.9927 0.0282364 13.8131C0.0282364 6.18327 5.82588 0 12.9788 0Z" fill="#C7C8FE"/>
    <g>
      <path d="M20.5647 51.3949C28.7567 51.3949 35.3976 41.8158 35.3976 29.9993C35.3976 18.1828 28.7567 8.60364 20.5647 8.60364C12.3727 8.60364 5.73177 18.1828 5.73177 29.9993C5.73177 41.8158 12.3727 51.3949 20.5647 51.3949Z" fill="#E0E1FF"/>
    </g>
    <path fill-rule="evenodd" clip-rule="evenodd" d="M8.47059 31.2095C12.5647 31.4931 15.8024 34.7927 15.8024 38.8298C15.8024 43.0465 12.2635 46.4691 7.90588 46.4691C3.87765 46.4691 0.545882 43.5476 0.0658823 39.7753H0.0376471V39.5484C0.0188235 39.312 0 39.0756 0 38.8298C0 38.584 0.00941176 38.3476 0.0376471 38.1113V31.1716H8.47059V31.2V31.2095Z" fill="#C7C8FE"/>
    <g>
      <path d="M22.5694 51.3004C31.749 51.3004 39.1906 41.7212 39.1906 29.9047C39.1906 18.0882 31.749 8.50909 22.5694 8.50909C13.3898 8.50909 5.94823 18.0882 5.94823 29.9047C5.94823 41.7212 13.3898 51.3004 22.5694 51.3004Z" fill="#E0E1FF"/>
    </g>
  </g>
</g>
</svg> 