<svg width="25" height="45" viewBox="0 0 25 45" fill="none" xmlns="http://www.w3.org/2000/svg">
<g id="Layer_x0020_1">
<g id="_2433012969152">
<path id="Vector" fill-rule="evenodd" clip-rule="evenodd" d="M12.5136 0.469238C19.4102 0.469238 25 6.38502 25 13.6848C25 20.5232 20.0907 26.1495 13.7931 26.837C13.3666 26.8822 12.9401 26.9093 12.5136 26.9093C12.078 26.9093 11.6515 26.8822 11.2341 26.837H0.0272217V14.1913H0.0362961C0.0272217 14.0285 0.0272217 13.8566 0.0272217 13.6848C0.0272217 6.38502 5.61706 0.469238 12.5136 0.469238Z" fill="#38376A"/>
<g id="Clip path group">
<mask id="mask0_149_31270" style="mask-type:luminance" maskUnits="userSpaceOnUse" x="0" y="0" width="25" height="27">
<g id="id0">
<path id="Vector_2" d="M12.5136 0.469238C19.4102 0.469238 25 6.38502 25 13.6848C25 20.5232 20.0907 26.1495 13.7931 26.837C13.3666 26.8822 12.9401 26.9093 12.5136 26.9093C12.078 26.9093 11.6515 26.8822 11.2341 26.837H0.0272217V14.1913H0.0362961C0.0272217 14.0285 0.0272217 13.8566 0.0272217 13.6848C0.0272217 6.38502 5.61706 0.469238 12.5136 0.469238Z" fill="white"/>
</g>
</mask>
<g mask="url(#mask0_149_31270)">
<g id="Group">
<g id="Group_2">
<path id="Vector_3" d="M19.8276 49.6408C27.726 49.6408 34.1289 40.476 34.1289 29.1707C34.1289 17.8654 27.726 8.70068 19.8276 8.70068C11.9292 8.70068 5.52631 17.8654 5.52631 29.1707C5.52631 40.476 11.9292 49.6408 19.8276 49.6408Z" fill="#3E4095"/>
</g>
</g>
</g>
</g>
<path id="Vector_4" fill-rule="evenodd" clip-rule="evenodd" d="M8.16697 30.3287C12.1143 30.6 15.2359 33.7569 15.2359 37.6194C15.2359 41.6537 11.824 44.9282 7.6225 44.9282C3.73866 44.9282 0.526316 42.1331 0.0635209 38.5239H0.0362976V38.3068C0.0181488 38.0807 0 37.8545 0 37.6194C0 37.3842 0.00907441 37.158 0.0362976 36.9319V30.2925H8.16697V30.3196V30.3287Z" fill="#38376A"/>
<g id="Clip path group_2">
<mask id="mask1_149_31270" style="mask-type:luminance" maskUnits="userSpaceOnUse" x="0" y="30" width="16" height="15">
<g id="id1">
<path id="Vector_5" d="M8.16697 30.3287C12.1143 30.6 15.2359 33.7569 15.2359 37.6194C15.2359 41.6537 11.824 44.9282 7.6225 44.9282C3.73866 44.9282 0.526316 42.1331 0.0635209 38.5239H0.0362976V38.3068C0.0181488 38.0807 0 37.8545 0 37.6194C0 37.3842 0.00907441 37.158 0.0362976 36.9319V30.2925H8.16697V30.3196V30.3287Z" fill="white"/>
</g>
</mask>
<g mask="url(#mask1_149_31270)">
<g id="Group_3">
<g id="Group_4">
<path id="Vector_6" d="M21.7604 49.5504C30.611 49.5504 37.7858 40.3857 37.7858 29.0804C37.7858 17.7751 30.611 8.61035 21.7604 8.61035C12.9099 8.61035 5.73503 17.7751 5.73503 29.0804C5.73503 40.3857 12.9099 49.5504 21.7604 49.5504Z" fill="#3E4095"/>
</g>
</g>
</g>
</g>
</g>
</g>
</svg>
