<svg width="26" height="47" viewBox="0 0 26 47" fill="none" xmlns="http://www.w3.org/2000/svg">
<g id="Layer_x0020_1">
<g id="_2433012969152">
<path id="Vector" fill-rule="evenodd" clip-rule="evenodd" d="M12.9788 0C20.1318 0 25.9294 6.18327 25.9294 13.8131C25.9294 20.9607 20.8377 26.8415 14.3059 27.56C13.8635 27.6073 13.4212 27.6356 12.9788 27.6356C12.5271 27.6356 12.0847 27.6073 11.6518 27.56H0.0282364V14.3425H0.0376482C0.0282364 14.1724 0.0282364 13.9927 0.0282364 13.8131C0.0282364 6.18327 5.82588 0 12.9788 0Z" fill="#C7C8FE"/>
<g id="Clip path group">
<mask id="mask0_151_31290" style="mask-type:luminance" maskUnits="userSpaceOnUse" x="0" y="0" width="26" height="28">
<g id="id0">
<path id="Vector_2" d="M12.9788 0C20.1318 0 25.9294 6.18327 25.9294 13.8131C25.9294 20.9607 20.8377 26.8415 14.3059 27.56C13.8635 27.6073 13.4212 27.6356 12.9788 27.6356C12.5271 27.6356 12.0847 27.6073 11.6518 27.56H0.0282364V14.3425H0.0376482C0.0282364 14.1724 0.0282364 13.9927 0.0282364 13.8131C0.0282364 6.18327 5.82588 0 12.9788 0Z" fill="white"/>
</g>
</mask>
<g mask="url(#mask0_151_31290)">
<g id="Group">
<g id="Group_2">
<path id="Vector_3" d="M20.5647 51.3949C28.7567 51.3949 35.3976 41.8158 35.3976 29.9993C35.3976 18.1828 28.7567 8.60364 20.5647 8.60364C12.3727 8.60364 5.73177 18.1828 5.73177 29.9993C5.73177 41.8158 12.3727 51.3949 20.5647 51.3949Z" fill="#E0E1FF"/>
</g>
</g>
</g>
</g>
<path id="Vector_4" fill-rule="evenodd" clip-rule="evenodd" d="M8.47059 31.2095C12.5647 31.4931 15.8024 34.7927 15.8024 38.8298C15.8024 43.0465 12.2635 46.4691 7.90588 46.4691C3.87765 46.4691 0.545882 43.5476 0.0658823 39.7753H0.0376471V39.5484C0.0188235 39.312 0 39.0756 0 38.8298C0 38.584 0.00941176 38.3476 0.0376471 38.1113V31.1716H8.47059V31.2V31.2095Z" fill="#C7C8FE"/>
<g id="Clip path group_2">
<mask id="mask1_151_31290" style="mask-type:luminance" maskUnits="userSpaceOnUse" x="0" y="31" width="16" height="16">
<g id="id1">
<path id="Vector_5" d="M8.47059 31.2095C12.5647 31.4931 15.8024 34.7927 15.8024 38.8298C15.8024 43.0465 12.2635 46.4691 7.90588 46.4691C3.87765 46.4691 0.545882 43.5476 0.0658823 39.7753H0.0376471V39.5484C0.0188235 39.312 0 39.0756 0 38.8298C0 38.584 0.00941176 38.3476 0.0376471 38.1113V31.1716H8.47059V31.2V31.2095Z" fill="white"/>
</g>
</mask>
<g mask="url(#mask1_151_31290)">
<g id="Group_3">
<g id="Group_4">
<path id="Vector_6" d="M22.5694 51.3004C31.749 51.3004 39.1906 41.7212 39.1906 29.9047C39.1906 18.0882 31.749 8.50909 22.5694 8.50909C13.3898 8.50909 5.94823 18.0882 5.94823 29.9047C5.94823 41.7212 13.3898 51.3004 22.5694 51.3004Z" fill="#E0E1FF"/>
</g>
</g>
</g>
</g>
</g>
</g>
</svg>
